<?xml version="1.0" encoding="utf-8"?>
<!-- Generator: Adobe Illustrator 18.0.0, SVG Export Plug-In . SVG Version: 6.00 Build 0)  -->
<!DOCTYPE svg PUBLIC "-//W3C//DTD SVG 1.1//EN" "http://www.w3.org/Graphics/SVG/1.1/DTD/svg11.dtd">
<svg version="1.1" id="Layer_1" xmlns="http://www.w3.org/2000/svg" xmlns:xlink="http://www.w3.org/1999/xlink" x="0px" y="0px"
	 viewBox="0 0 250 250" enable-background="new 0 0 250 250" xml:space="preserve">
<g>
	<path fill="#231F20" d="M57.1,113.7h8.9l-4.4-21.8L57.1,113.7z M103.6,153h-0.5v4.5h0.5c1.5,0,3.3-0.3,3.3-2.3S105.1,153,103.6,153
		z M125.2,1.3c-68.5,0-124,55.5-124,124s55.5,124,124,124s124-55.5,124-124S193.7,1.3,125.2,1.3z M69.3,130L67,118.8H56L53.7,130h-6
		l11.1-47.4h5.5l11,47.4H69.3z M90.2,155.5c-1-1.3-2.5-2-4.1-2c-2.9,0-4.8,2.2-4.8,5c0,2.9,2,4.9,4.9,4.9c1.5,0,3.1-0.7,4.1-1.9v5.7
		c-1.6,0.5-2.7,0.8-4.2,0.8c-2.5,0-4.9-1-6.8-2.7c-2-1.8-2.9-4.2-2.9-6.9c0-2.5,0.9-4.9,2.7-6.7c1.8-1.8,4.4-2.9,6.9-2.9
		c1.5,0,2.9,0.3,4.3,0.9C90.2,149.8,90.2,155.5,90.2,155.5z M95.1,130h-5.7V87.7h-8v-5.1H103v5.1h-7.9C95.1,87.7,95.1,130,95.1,130z
		 M107.6,167.6l-4.5-7h0v7h-4.7v-18.2h7.1c3.6,0,6.3,1.7,6.3,5.6c0,2.5-1.4,4.7-4,5.1l5.7,7.4L107.6,167.6L107.6,167.6z
		 M130.4,153.4h-5.6v3h5.3v4h-5.3v3.1h5.6v4H120v-18.2h10.3V153.4z M136.7,130h-5.7v-21.5h-10.5V130h-5.7V82.6h5.7v20.7h10.5V82.6
		h5.7V130z M148.9,153.4h-5.6v3h5.3v4h-5.3v3.1h5.6v4h-10.3v-18.2h10.3V153.4z M149.8,82.6h18.3v5.1h-12.6v15.9h10.9v5.1h-10.9v16.1
		h12.6v5.1h-18.3L149.8,82.6L149.8,82.6z M167.9,167.6l-6.1-7.9h0v7.9H157v-18.2h4.7v7.5h0l5.7-7.5h5.9l-7.2,8.6l7.9,9.6H167.9z
		 M193.8,110.8V130h-5.7v-19.2l-8.7-28.2h6.3l5.3,20.2l5.3-20.2h6.3L193.8,110.8z"/>
</g>
</svg>
