<?xml version="1.0" encoding="utf-8"?>
<!-- Generator: Adobe Illustrator 18.0.0, SVG Export Plug-In . SVG Version: 6.00 Build 0)  -->
<!DOCTYPE svg PUBLIC "-//W3C//DTD SVG 1.1//EN" "http://www.w3.org/Graphics/SVG/1.1/DTD/svg11.dtd">
<svg version="1.1" id="Layer_1" xmlns="http://www.w3.org/2000/svg" xmlns:xlink="http://www.w3.org/1999/xlink" x="0px" y="0px"
	 viewBox="0 0 250 250" enable-background="new 0 0 250 250" xml:space="preserve">
<path d="M173.2,246.1c0.4,0.9,1.3,1.4,2.2,1.4h22.4c0,0,0.1,0,0.1,0c1.4,0,2.5-1.1,2.5-2.4c0-0.6-0.2-1.1-0.5-1.5
	c0,0-20.1-42.8-20.7-44c-0.7-1.3,0-2.5,0.4-2.9c17.3-15.3,27.5-37.1,28-60.1c0-0.7-0.2-1.3-0.7-1.8c-0.5-0.5-1.1-0.7-1.8-0.7h-20.2
	c-1.3,0-2.4,1-2.5,2.4c-0.3,12.8-5,25-13.2,34.8c-0.7,0.8-2.6,1.5-3.5-0.4C156.1,150.7,99.8,31,99.3,30c-0.6-1.1,0-2.4,1.4-2.4
	c1.3,0,49.2,0,49.2,0c1.4,0,2-1.1,1.4-2.5L142.5,5c-0.6-1.4-2.2-2.5-3.6-2.5H62.4c-0.9,0-1.7,0.4-2.1,1.1c-0.5,0.7-0.5,1.6-0.1,2.4
	c0,0,24.8,52.7,25.5,54.1c0.6,1.4-0.3,2.4-0.9,2.8c-26.1,14.6-42.2,41.9-42.2,71.9c0,45.5,37,82.5,82.5,82.5
	c10.3,0,20.4-1.9,29.9-5.6c0.6-0.2,2,0,2.6,1.2C158.1,213.9,173.2,246.1,173.2,246.1z M125,192c-31.6,0-57.3-25.7-57.3-57.3
	c0-20.1,10.5-38.6,27.5-49c0.6-0.4,2.2-0.5,3,1.2c0.8,1.6,40.2,85.3,46.7,99.1c0.6,1.2,0.1,2.2-1.2,2.7C137.7,191,131.4,192,125,192
	z"/>
</svg>
