<?xml version="1.0" encoding="utf-8"?>
<!-- Generator: Adobe Illustrator 18.0.0, SVG Export Plug-In . SVG Version: 6.00 Build 0)  -->
<!DOCTYPE svg PUBLIC "-//W3C//DTD SVG 1.1//EN" "http://www.w3.org/Graphics/SVG/1.1/DTD/svg11.dtd">
<svg version="1.1" id="Layer_1" xmlns="http://www.w3.org/2000/svg" xmlns:xlink="http://www.w3.org/1999/xlink" x="0px" y="0px"
	 viewBox="0 0 250 250" enable-background="new 0 0 250 250" xml:space="preserve">
<path d="M225.3,69.6c-5.6-15.2-13.4-27.8-23.4-37.9C191.9,21.6,180,14,166.4,9c-13.7-5-28.4-7.6-44.2-7.6H16.3V248H88V136.8H77.3
	V117c0-1.7,0.7-3.1,2.4-3.1h58.8c1.7,0,3.8,1.4,3.8,3.1v19.8h-10.7v111c15.5-0.9,27.8-4.2,39.7-9.6c13.9-6.3,25.5-15.4,34.8-26.4
	c9.3-11,16.2-24.1,20.8-39.2c4.6-15.2,6.9-31.7,6.9-49.6C233.7,102.5,230.9,84.7,225.3,69.6L225.3,69.6z M99.9,137.5h7.7v111.1h-7.7
	V137.5z"/>
</svg>
