<svg xmlns="http://www.w3.org/2000/svg" width="250" height="250" viewBox="0 0 250 250"><path d="M18.231 125.908h-1.574c-.699 0-1.22-.146-1.561-.438-.342-.291-.512-.704-.512-1.237v-19.857l-10.39.474v2.273h1.049c.865 0 1.544.233 2.036.7.491.466.737 1.124.737 1.974v13.537c0 .95-.171 1.616-.512 1.999-.342.384-.929.576-1.761.576h-1.549v2.322h14.037v-2.323zM10.613 99.505c1.116 0 2.073-.395 2.872-1.186.8-.792 1.2-1.753 1.2-2.886 0-1.132-.4-2.094-1.2-2.884-.799-.791-1.756-1.187-2.872-1.187-1.132 0-2.098.396-2.897 1.187-.8.791-1.199 1.752-1.199 2.884 0 1.116.399 2.074 1.199 2.873.8.799 1.765 1.199 2.897 1.199zM50.778 125.357c-.382-.366-.574-.966-.574-1.798v-10.841c0-2.763-.665-4.92-1.993-6.469-1.345-1.548-3.179-2.322-5.503-2.322-1.71 0-3.338.458-4.881 1.374-1.544.916-2.997 2.298-4.358 4.146-.183-1.982-.449-3.688-.799-5.121l-9.767.524v2.174h1c.882 0 1.594.237 2.135.711.542.474.812 1.112.812 1.91v13.914c0 .765-.187 1.348-.562 1.748-.374.399-.928.6-1.661.6h-1.898v2.322h14.611v-2.322h-1.773c-.617 0-1.12-.201-1.511-.6-.392-.4-.588-.983-.588-1.748v-7.818c0-2.515.548-4.425 1.641-5.733 1.094-1.306 2.511-1.96 4.25-1.96 1.276 0 2.308.462 3.095 1.386.787.923 1.181 2.252 1.181 3.984v10.142c0 .765-.192 1.348-.575 1.748-.383.399-.966.6-1.749.6h-1.473v2.322h14.062v-2.322h-1.299c-.832 0-1.44-.184-1.823-.551zM73.433 125.706c-.933.685-2.282 1.025-4.046 1.025-4.297 0-7.328-2.231-9.092-6.694h-2.074l.45 8.843h1.898l1.786-2.099c1.199.815 2.351 1.386 3.458 1.711 1.106.324 2.341.487 3.705.487 2.829 0 5.113-.737 6.852-2.213 1.739-1.473 2.608-3.292 2.608-5.459 0-1.714-.453-3.214-1.361-4.498-.908-1.282-2.169-2.25-3.785-2.898-.85-.35-2.556-.784-5.121-1.3-2.831-.568-4.562-1.093-5.194-1.577-.633-.468-.949-1.152-.949-2.054 0-.918.408-1.678 1.224-2.278.816-.601 2.006-.902 3.572-.902 1.815 0 3.359.43 4.634 1.292 1.273.861 2.443 2.354 3.509 4.478h2.023l-.5-7.993h-1.524l-1.635 1.973c-1.134-.732-2.205-1.249-3.213-1.549s-2.146-.449-3.412-.449c-2.6 0-4.675.745-6.225 2.234-1.55 1.49-2.325 3.399-2.325 5.729 0 1.631.426 3.024 1.274 4.181s2.115 2.06 3.797 2.708c.982.399 2.831.874 5.544 1.424 2.514.517 4.063 1 4.647 1.45.582.451.874 1.109.874 1.976 0 .952-.467 1.768-1.399 2.452zM105.817 125.695c2.788-2.19 4.184-5.333 4.184-9.429 0-2.563-.534-4.759-1.599-6.582-1.066-1.823-2.694-3.301-4.883-4.433s-4.592-1.699-7.206-1.699c-3.814 0-6.981 1.22-9.504 3.659-2.523 2.44-3.784 5.466-3.784 9.079 0 2.398.558 4.55 1.674 6.458 1.116 1.907 2.709 3.422 4.783 4.545 2.073 1.124 4.357 1.687 6.857 1.687 3.529-.001 6.689-1.097 9.478-3.285zm-13.501-1.225c-1.017-1.506-1.525-4.25-1.525-8.229 0-3.831.513-6.508 1.538-8.031 1.023-1.523 2.401-2.286 4.133-2.286 1.782 0 3.206.771 4.271 2.312 1.065 1.54 1.599 4.259 1.599 8.155 0 3.797-.542 6.47-1.624 8.018-1.083 1.548-2.507 2.322-4.271 2.322-1.731-.001-3.105-.753-4.121-2.261zM150.526 125.383c-.357.35-.978.525-1.86.525h-1.449v2.322h14.113v-2.322h-1.533c-.722 0-1.255-.167-1.598-.5-.344-.333-.516-.883-.516-1.65v-11.189c0-2.748-.684-4.871-2.051-6.37-1.368-1.482-3.236-2.223-5.604-2.223-1.7 0-3.331.434-4.891 1.305-1.559.869-3.131 2.349-4.715 4.438-.584-1.906-1.486-3.332-2.711-4.276-1.225-.945-2.769-1.417-4.633-1.417-1.732 0-3.335.405-4.808 1.216-1.474.811-3.011 2.237-4.608 4.277-.117-1.857-.359-3.588-.725-5.194l-9.641.524v2.273c1.182 0 1.964.076 2.348.225.516.199.895.486 1.137.859.24.375.361.878.361 1.51v14.043c0 .782-.17 1.335-.512 1.659-.341.325-.954.487-1.836.487h-1.648v2.322h14.438v-2.322h-1.374c-.816 0-1.45-.217-1.899-.651-.333-.332-.499-.965-.499-1.897v-9.167c0-.899.304-1.889.912-2.972.607-1.083 1.339-1.881 2.197-2.397.858-.516 1.788-.774 2.786-.774 1.282 0 2.339.467 3.173 1.399.832.933 1.248 2.24 1.248 3.921v10.542c0 .682-.191 1.206-.575 1.573-.299.283-.882.425-1.748.425h-1.599v2.322h14.362v-2.322h-1.923c-.565 0-1.015-.159-1.349-.475-.334-.316-.499-.773-.499-1.371v-9.154c0-1.148.291-2.316.874-3.504.583-1.19 1.276-2.037 2.085-2.545.808-.507 1.777-.761 2.911-.761 1.382 0 2.459.45 3.233 1.348s1.162 2.286 1.162 4.165v10.152c.002.732-.177 1.272-.536 1.621zM191.903 125.357c-.384-.366-.575-.966-.575-1.798v-10.841c0-2.763-.663-4.92-1.992-6.469-1.345-1.548-3.18-2.322-5.504-2.322-1.709 0-3.337.458-4.881 1.374-1.545.916-2.996 2.298-4.358 4.146-.183-1.982-.448-3.688-.798-5.121l-9.767.524v2.174h.998c.883 0 1.595.237 2.137.711.54.474.812 1.112.812 1.91v13.914c0 .765-.188 1.348-.562 1.748-.375.399-.929.6-1.661.6h-1.897v2.322h14.611v-2.322h-1.772c-.617 0-1.121-.201-1.512-.6-.392-.4-.588-.983-.588-1.748v-7.818c0-2.515.548-4.425 1.642-5.733 1.094-1.306 2.51-1.96 4.249-1.96 1.276 0 2.308.462 3.096 1.386.786.923 1.181 2.252 1.181 3.984v10.142c0 .765-.192 1.348-.576 1.748-.382.399-.964.6-1.748.6h-1.473v2.322h14.062v-2.322h-1.298c-.835 0-1.442-.184-1.826-.551zM213.334 125.908h-1.573c-.7 0-1.22-.146-1.562-.438-.341-.291-.512-.704-.512-1.237v-19.857l-10.391.474v2.273h1.049c.866 0 1.544.233 2.035.7.492.466.738 1.124.738 1.974v13.537c0 .95-.172 1.616-.513 1.999-.342.384-.929.576-1.761.576h-1.549v2.322h14.037v-2.323zM205.716 99.505c1.115 0 2.073-.395 2.873-1.186.8-.792 1.198-1.753 1.198-2.886 0-1.132-.398-2.094-1.198-2.884-.8-.791-1.758-1.187-2.873-1.187-1.133 0-2.099.396-2.897 1.187-.799.791-1.199 1.752-1.199 2.884 0 1.116.4 2.074 1.199 2.873.798.799 1.764 1.199 2.897 1.199zM221.552 117.19c-2.432 1.516-3.646 3.53-3.646 6.044 0 1.666.658 3.039 1.974 4.12 1.314 1.083 3.146 1.625 5.495 1.625 1.699 0 3.222-.304 4.571-.912 1.348-.608 2.873-1.752 4.57-3.435.732 1.683 1.541 2.826 2.423 3.435.883.608 2.039.912 3.472.912.966 0 1.852-.135 2.66-.399.808-.267 1.72-.749 2.736-1.448l-1.051-1.8c-.782.517-1.415.775-1.898.775-.582 0-1.039-.2-1.373-.601-.334-.399-.499-1.049-.499-1.947v-11.865c0-1.765-.379-3.251-1.137-4.459-.758-1.207-1.745-2.052-2.96-2.535-1.898-.766-4.07-1.149-6.52-1.149-3.247 0-5.961.766-8.144 2.298-1.747 1.233-2.622 2.656-2.622 4.271 0 .983.333 1.786.999 2.41.666.625 1.549.937 2.648.937 1.031 0 1.856-.287 2.473-.861.615-.575.924-1.328.924-2.261 0-.733-.233-1.474-.7-2.223-.215-.333-.324-.583-.324-.75 0-.316.291-.633.874-.949.866-.482 1.865-.724 2.998-.724 1.482 0 2.664.42 3.546 1.26.883.842 1.325 1.928 1.325 3.261v3.372c-6.594 1.2-10.865 2.399-12.814 3.598zm12.814 1.798c0 2.049-.547 3.664-1.636 4.846-1.092 1.183-2.461 1.773-4.109 1.773-1.065 0-1.895-.312-2.485-.937-.591-.625-.887-1.519-.887-2.685 0-1.648.628-2.976 1.886-3.984 1.257-1.007 3.668-1.752 7.231-2.236v3.223zM64.25 145.547c1.602 0 2.995.997 3.645 2.251l2.831-1.392c-1.09-1.928-3.063-3.784-6.476-3.784-4.642 0-8.239 3.25-8.239 8.008s3.597 8.007 8.239 8.007c3.412 0 5.361-1.879 6.476-3.807l-2.831-1.368c-.65 1.275-2.042 2.251-3.645 2.251-2.808 0-4.851-2.159-4.851-5.083 0-2.926 2.043-5.083 4.851-5.083zM80.256 142.622c-4.665 0-8.077 3.344-8.077 8.008 0 4.665 3.412 8.007 8.077 8.007 4.688 0 8.1-3.342 8.1-8.007 0-4.664-3.411-8.008-8.1-8.008zm0 13.091c-2.854 0-4.688-2.205-4.688-5.083 0-2.901 1.833-5.083 4.688-5.083 2.855 0 4.712 2.182 4.712 5.083.001 2.878-1.856 5.083-4.712 5.083zM91.253 158.358h3.296v-6.406h7.497v-2.899h-7.497v-3.274h7.66v-2.901h-10.956zM105.113 158.358h3.296v-6.406h7.497v-2.899h-7.497v-3.274h7.659v-2.901h-10.955zM118.973 158.358h10.955v-2.901h-7.659v-3.505h7.496v-2.899h-7.496v-3.274h7.659v-2.901h-10.955zM133.302 158.358h10.955v-2.901h-7.659v-3.505h7.496v-2.899h-7.496v-3.274h7.659v-2.901h-10.955zM161.436 145.547c1.603 0 2.994.997 3.645 2.251l2.832-1.392c-1.092-1.928-3.064-3.784-6.477-3.784-4.641 0-8.238 3.25-8.238 8.008s3.598 8.007 8.238 8.007c3.412 0 5.361-1.879 6.477-3.807l-2.832-1.368c-.65 1.275-2.042 2.251-3.645 2.251-2.808 0-4.85-2.159-4.85-5.083 0-2.926 2.042-5.083 4.85-5.083zM177.442 142.622c-4.664 0-8.077 3.344-8.077 8.008 0 4.665 3.413 8.007 8.077 8.007 4.689 0 8.101-3.342 8.101-8.007 0-4.664-3.411-8.008-8.101-8.008zm0 13.091c-2.854 0-4.688-2.205-4.688-5.083 0-2.901 1.834-5.083 4.688-5.083 2.855 0 4.712 2.182 4.712 5.083 0 2.878-1.856 5.083-4.712 5.083zM189.205 154.854c-1.021 0-1.88.858-1.88 1.879s.859 1.88 1.88 1.88 1.88-.858 1.88-1.88c0-1.02-.858-1.879-1.88-1.879zM4.381 148.076h41.064v4.44h-41.064zM203.838 148.076h41.063v4.44h-41.063z"/></svg>