<?xml version="1.0" encoding="utf-8"?>
<!-- Generator: Adobe Illustrator 18.0.0, SVG Export Plug-In . SVG Version: 6.00 Build 0)  -->
<!DOCTYPE svg PUBLIC "-//W3C//DTD SVG 1.1//EN" "http://www.w3.org/Graphics/SVG/1.1/DTD/svg11.dtd">
<svg version="1.1" id="Layer_1" xmlns="http://www.w3.org/2000/svg" xmlns:xlink="http://www.w3.org/1999/xlink" x="0px" y="0px"
	 viewBox="0 0 250 250" enable-background="new 0 0 250 250" xml:space="preserve">
<path d="M213.7,91.9c0-12.2-9.9-22.1-22.1-22.1c-12.2,0-22.1,9.9-22.1,22.1c0,2.9,0.6,5.6,1.6,8.1l2.3,5.7l-156.8,0v8.3h175.1
	C203.8,114,213.6,104.1,213.7,91.9z M223.7,45c-10.9,0-19.9,8-21.7,18.4c10.8,3.9,18.8,13.8,19.8,25.7h1.9
	c12.2,0,22.1-9.9,22.1-22.1C245.7,54.9,235.9,45,223.7,45z M223.7,136H4.3v8.3h201.1l-2.2,5.7c-1,2.5-1.6,5.2-1.6,8.1
	c0,3.1,0.6,6,1.8,8.6c0.5,1.1,1,2.1,1.7,3.1l0.6,1c0.5,0.7,1.1,1.4,1.7,2.1c4,4.4,9.8,7.3,16.3,7.3v0c12.2,0,22.1-9.9,22.1-22.1
	C245.7,145.9,235.9,136.1,223.7,136z M163.3,80.8l-134.3,0v8.3h132.3C161.6,86.2,162.3,83.5,163.3,80.8z M193.5,161.5
	c-1.6-0.4-3.3-0.6-5-0.6H58.9v8.3h111.3l-2.2,5.7c-1,2.5-1.6,5.3-1.6,8.1c0,12.2,9.9,22.1,22.1,22.1c11.4,0,20.6-8.6,21.8-19.7
	C201.2,180.9,194.7,172,193.5,161.5L193.5,161.5z"/>
</svg>
