<?xml version="1.0" encoding="utf-8"?>
<!-- Generator: Adobe Illustrator 18.0.0, SVG Export Plug-In . SVG Version: 6.00 Build 0)  -->
<!DOCTYPE svg PUBLIC "-//W3C//DTD SVG 1.1//EN" "http://www.w3.org/Graphics/SVG/1.1/DTD/svg11.dtd">
<svg version="1.1" id="Layer_1" xmlns="http://www.w3.org/2000/svg" xmlns:xlink="http://www.w3.org/1999/xlink" x="0px" y="0px"
	 viewBox="0 0 250 250" enable-background="new 0 0 250 250" xml:space="preserve">
<path d="M202.1,10.9c0-1,0-2-0.1-3c-0.1-3.7-3.1-6.6-6.8-6.8c-1,0-2-0.1-3-0.1c-35.3,0-65.1,23.6-74.5,55.9
	c-9.1-24.5-32.7-42-60.3-42c-0.8,0-1.7,0-2.5,0.1c-3.7,0.1-6.6,3.1-6.8,6.8c0,0.8-0.1,1.7-0.1,2.5c0,34.3,27.1,62.4,61,64.1v103.8
	c-25.6-11.6-55.4,3.9-60.4,27.1c-1.6,7.5,1.7,15.7,4.8,19.4c17.5,20.9,48.8,7.2,66.3-15.3c7.8-10,5.8-22.9,5.8-44.2v-63.5
	c10.8,8,21.4,23.7,25.7,38c2.7,8.9-0.9,23.7-3.8,31.2c-0.9,2.3-3.3,4.2-2.2,6.5c7.6,5.6,11.3-6.3,13.4-11.3
	c2.3-5.4,4.6-12.1,5.4-16.7c7-40.8-20.8-51.4-33.3-75.1C170.7,84.9,202,51.5,202.1,10.9L202.1,10.9z M100.6,66.5
	c0,0-12.7-19-37.5-34.3c-0.9-0.6-2.1-1.6-1.6-2.6c0.5-1,1.6-1,2.6-0.5c20.5,9.1,35.7,33.9,36.3,34.9C102,66.7,100.6,66.5,100.6,66.5
	z M134.2,66.5c-0.5,0.8-1.4,1.3-2.3,1.3c0,0-2,0.2,0.3-3.5c0.9-1.5,23.3-36.1,52.2-47.9c1.4-0.6,3,0.1,3.6,1.5
	c0.6,1.4-0.1,3-1.5,3.6C159.2,32.7,134.4,66.1,134.2,66.5z"/>
</svg>
