<?xml version="1.0" encoding="utf-8"?>
<!-- Generator: Adobe Illustrator 18.0.0, SVG Export Plug-In . SVG Version: 6.00 Build 0)  -->
<!DOCTYPE svg PUBLIC "-//W3C//DTD SVG 1.1//EN" "http://www.w3.org/Graphics/SVG/1.1/DTD/svg11.dtd">
<svg version="1.1" id="Layer_1" xmlns:sketch="http://www.bohemiancoding.com/sketch/ns"
	 xmlns="http://www.w3.org/2000/svg" xmlns:xlink="http://www.w3.org/1999/xlink" x="0px" y="0px" viewBox="0 138 252 84"
	 enable-background="new 0 138 252 84" xml:space="preserve">
<title>smaller</title>
<desc>Created with Sketch.</desc>
<g sketch:type="MSArtboardGroup">
	<path id="Fill-1" sketch:type="MSShapeGroup" fill="#C6C4B9" fill-opacity="0.35" d="M0,138h252v84H0V138z"/>
</g>
<path fill="#87857F" fill-opacity="0.35" d="M155.8,156.2l-61.2,13.3v-2.7h-2.7v18.6h2.7v-2.7l10.6,2.3v11c0,0.2,0,1.2,0.6,2.5
	c0.3,0.6,0.9,1.4,1.7,1.9c0.8,0.6,1.9,0.9,3,0.9h18.6c0.2,0,1.2,0,2.5-0.6c0.6-0.3,1.4-0.9,1.9-1.7c0.6-0.8,0.9-1.9,0.9-3v-4.6
	l21.3,4.6v-39.8H155.8z M129.2,196.1h-18.6v-9.8l18.6,4V196.1z"/>
</svg>
